<?xml version="1.0" encoding="UTF-8"?><svg id="Capa_1" xmlns="http://www.w3.org/2000/svg" viewBox="0 0 595.28 841.89"><defs><style>.cls-1{fill:#fff;}.cls-1,.cls-2{fill-rule:evenodd;}.cls-2{fill:#f58220;}</style></defs><path class="cls-2" d="m225.55,370.83h144.17c8.61,0,15.66,6.84,15.66,15.19v141.99c0,8.36-7.05,15.19-15.66,15.19h-144.17c-8.61,0-15.66-6.84-15.66-15.19v-141.99c0-8.36,7.05-15.19,15.66-15.19Z"/><path class="cls-1" d="m372.83,516.15c.01,5.83-.03,10.8.03,14.67-25.16,0-110.59,0-135.33,0-10.25-.97-15.86-13.01-12.34-20.03,10.97-21.44,50.19-99.93,62.07-121.26,5.4-7.5,19.48-6.41,23.79,2.37,10.15,19.36,44.13,85.85,56.17,109.22-35.55.17-71.71.56-104.29.18,8.56-16.56,26.17-51.08,35.69-69.28,3.43,6.42,5.32,10.31,8.23,16.39-5.2,12.17-14.72,26.46-19.95,38.84,16.68-.19,40.2.1,55.81,0-10.5-21.54-20.58-43.01-44.1-87.95-19.23,38.7-46.7,91.23-59.63,116.69,33.58.33,109.14-.03,133.84.18Z"/></svg>